<?xml version='1.0' encoding='UTF-8'?>
<svg width="74mm" height="74mm" version="1.1" viewBox="0 0 74 74" xmlns="http://www.w3.org/2000/svg"><path d="M8,8H10V10H8zM10,8H12V10H10zM12,8H14V10H12zM14,8H16V10H14zM16,8H18V10H16zM18,8H20V10H18zM20,8H22V10H20zM32,8H34V10H32zM34,8H36V10H34zM36,8H38V10H36zM38,8H40V10H38zM52,8H54V10H52zM54,8H56V10H54zM56,8H58V10H56zM58,8H60V10H58zM60,8H62V10H60zM62,8H64V10H62zM64,8H66V10H64zM8,10H10V12H8zM20,10H22V12H20zM28,10H30V12H28zM30,10H32V12H30zM36,10H38V12H36zM38,10H40V12H38zM52,10H54V12H52zM64,10H66V12H64zM8,12H10V14H8zM12,12H14V14H12zM14,12H16V14H14zM16,12H18V14H16zM20,12H22V14H20zM28,12H30V14H28zM30,12H32V14H30zM32,12H34V14H32zM36,12H38V14H36zM40,12H42V14H40zM44,12H46V14H44zM46,12H48V14H46zM52,12H54V14H52zM56,12H58V14H56zM58,12H60V14H58zM60,12H62V14H60zM64,12H66V14H64zM8,14H10V16H8zM12,14H14V16H12zM14,14H16V16H14zM16,14H18V16H16zM20,14H22V16H20zM26,14H28V16H26zM32,14H34V16H32zM42,14H44V16H42zM52,14H54V16H52zM56,14H58V16H56zM58,14H60V16H58zM60,14H62V16H60zM64,14H66V16H64zM8,16H10V18H8zM12,16H14V18H12zM14,16H16V18H14zM16,16H18V18H16zM20,16H22V18H20zM24,16H26V18H24zM28,16H30V18H28zM30,16H32V18H30zM32,16H34V18H32zM36,16H38V18H36zM38,16H40V18H38zM40,16H42V18H40zM46,16H48V18H46zM52,16H54V18H52zM56,16H58V18H56zM58,16H60V18H58zM60,16H62V18H60zM64,16H66V18H64zM8,18H10V20H8zM20,18H22V20H20zM26,18H28V20H26zM28,18H30V20H28zM32,18H34V20H32zM36,18H38V20H36zM40,18H42V20H40zM42,18H44V20H42zM44,18H46V20H44zM46,18H48V20H46zM48,18H50V20H48zM52,18H54V20H52zM64,18H66V20H64zM8,20H10V22H8zM10,20H12V22H10zM12,20H14V22H12zM14,20H16V22H14zM16,20H18V22H16zM18,20H20V22H18zM20,20H22V22H20zM24,20H26V22H24zM28,20H30V22H28zM32,20H34V22H32zM36,20H38V22H36zM40,20H42V22H40zM44,20H46V22H44zM48,20H50V22H48zM52,20H54V22H52zM54,20H56V22H54zM56,20H58V22H56zM58,20H60V22H58zM60,20H62V22H60zM62,20H64V22H62zM64,20H66V22H64zM24,22H26V24H24zM26,22H28V24H26zM28,22H30V24H28zM30,22H32V24H30zM32,22H34V24H32zM34,22H36V24H34zM36,22H38V24H36zM48,22H50V24H48zM12,24H14V26H12zM14,24H16V26H14zM20,24H22V26H20zM22,24H24V26H22zM24,24H26V26H24zM28,24H30V26H28zM34,24H36V26H34zM38,24H40V26H38zM44,24H46V26H44zM46,24H48V26H46zM50,24H52V26H50zM52,24H54V26H52zM56,24H58V26H56zM10,26H12V28H10zM12,26H14V28H12zM18,26H20V28H18zM22,26H24V28H22zM30,26H32V28H30zM32,26H34V28H32zM36,26H38V28H36zM40,26H42V28H40zM44,26H46V28H44zM48,26H50V28H48zM50,26H52V28H50zM52,26H54V28H52zM56,26H58V28H56zM60,26H62V28H60zM64,26H66V28H64zM8,28H10V30H8zM10,28H12V30H10zM12,28H14V30H12zM18,28H20V30H18zM20,28H22V30H20zM24,28H26V30H24zM26,28H28V30H26zM28,28H30V30H28zM36,28H38V30H36zM46,28H48V30H46zM48,28H50V30H48zM52,28H54V30H52zM54,28H56V30H54zM58,28H60V30H58zM60,28H62V30H60zM62,28H64V30H62zM8,30H10V32H8zM10,30H12V32H10zM12,30H14V32H12zM14,30H16V32H14zM16,30H18V32H16zM22,30H24V32H22zM24,30H26V32H24zM30,30H32V32H30zM48,30H50V32H48zM58,30H60V32H58zM64,30H66V32H64zM8,32H10V34H8zM10,32H12V34H10zM12,32H14V34H12zM20,32H22V34H20zM26,32H28V34H26zM28,32H30V34H28zM30,32H32V34H30zM32,32H34V34H32zM46,32H48V34H46zM50,32H52V34H50zM54,32H56V34H54zM60,32H62V34H60zM62,32H64V34H62zM64,32H66V34H64zM14,34H16V36H14zM16,34H18V36H16zM24,34H26V36H24zM30,34H32V36H30zM32,34H34V36H32zM34,34H36V36H34zM38,34H40V36H38zM46,34H48V36H46zM52,34H54V36H52zM54,34H56V36H54zM58,34H60V36H58zM60,34H62V36H60zM62,34H64V36H62zM64,34H66V36H64zM12,36H14V38H12zM14,36H16V38H14zM18,36H20V38H18zM20,36H22V38H20zM24,36H26V38H24zM26,36H28V38H26zM36,36H38V38H36zM40,36H42V38H40zM42,36H44V38H42zM44,36H46V38H44zM46,36H48V38H46zM48,36H50V38H48zM50,36H52V38H50zM54,36H56V38H54zM56,36H58V38H56zM58,36H60V38H58zM62,36H64V38H62zM64,36H66V38H64zM8,38H10V40H8zM18,38H20V40H18zM26,38H28V40H26zM30,38H32V40H30zM36,38H38V40H36zM38,38H40V40H38zM40,38H42V40H40zM42,38H44V40H42zM48,38H50V40H48zM52,38H54V40H52zM56,38H58V40H56zM58,38H60V40H58zM62,38H64V40H62zM8,40H10V42H8zM14,40H16V42H14zM16,40H18V42H16zM20,40H22V42H20zM22,40H24V42H22zM24,40H26V42H24zM26,40H28V42H26zM32,40H34V42H32zM34,40H36V42H34zM36,40H38V42H36zM38,40H40V42H38zM46,40H48V42H46zM56,40H58V42H56zM58,40H60V42H58zM62,40H64V42H62zM10,42H12V44H10zM12,42H14V44H12zM14,42H16V44H14zM16,42H18V44H16zM24,42H26V44H24zM30,42H32V44H30zM32,42H34V44H32zM36,42H38V44H36zM46,42H48V44H46zM52,42H54V44H52zM54,42H56V44H54zM60,42H62V44H60zM8,44H10V46H8zM12,44H14V46H12zM20,44H22V46H20zM22,44H24V46H22zM28,44H30V46H28zM30,44H32V46H30zM32,44H34V46H32zM36,44H38V46H36zM38,44H40V46H38zM44,44H46V46H44zM48,44H50V46H48zM52,44H54V46H52zM56,44H58V46H56zM60,44H62V46H60zM12,46H14V48H12zM14,46H16V48H14zM18,46H20V48H18zM22,46H24V48H22zM24,46H26V48H24zM28,46H30V48H28zM32,46H34V48H32zM34,46H36V48H34zM36,46H38V48H36zM38,46H40V48H38zM42,46H44V48H42zM44,46H46V48H44zM48,46H50V48H48zM50,46H52V48H50zM52,46H54V48H52zM54,46H56V48H54zM58,46H60V48H58zM60,46H62V48H60zM62,46H64V48H62zM64,46H66V48H64zM10,48H12V50H10zM12,48H14V50H12zM18,48H20V50H18zM20,48H22V50H20zM24,48H26V50H24zM32,48H34V50H32zM34,48H36V50H34zM38,48H40V50H38zM46,48H48V50H46zM48,48H50V50H48zM50,48H52V50H50zM52,48H54V50H52zM54,48H56V50H54zM56,48H58V50H56zM58,48H60V50H58zM60,48H62V50H60zM64,48H66V50H64zM24,50H26V52H24zM32,50H34V52H32zM34,50H36V52H34zM36,50H38V52H36zM38,50H40V52H38zM42,50H44V52H42zM48,50H50V52H48zM56,50H58V52H56zM58,50H60V52H58zM64,50H66V52H64zM8,52H10V54H8zM10,52H12V54H10zM12,52H14V54H12zM14,52H16V54H14zM16,52H18V54H16zM18,52H20V54H18zM20,52H22V54H20zM24,52H26V54H24zM28,52H30V54H28zM32,52H34V54H32zM38,52H40V54H38zM42,52H44V54H42zM44,52H46V54H44zM46,52H48V54H46zM48,52H50V54H48zM52,52H54V54H52zM56,52H58V54H56zM60,52H62V54H60zM62,52H64V54H62zM8,54H10V56H8zM20,54H22V56H20zM26,54H28V56H26zM28,54H30V56H28zM30,54H32V56H30zM32,54H34V56H32zM34,54H36V56H34zM40,54H42V56H40zM48,54H50V56H48zM56,54H58V56H56zM62,54H64V56H62zM64,54H66V56H64zM8,56H10V58H8zM12,56H14V58H12zM14,56H16V58H14zM16,56H18V58H16zM20,56H22V58H20zM28,56H30V58H28zM30,56H32V58H30zM34,56H36V58H34zM36,56H38V58H36zM38,56H40V58H38zM42,56H44V58H42zM48,56H50V58H48zM50,56H52V58H50zM52,56H54V58H52zM54,56H56V58H54zM56,56H58V58H56zM58,56H60V58H58zM60,56H62V58H60zM62,56H64V58H62zM64,56H66V58H64zM8,58H10V60H8zM12,58H14V60H12zM14,58H16V60H14zM16,58H18V60H16zM20,58H22V60H20zM24,58H26V60H24zM26,58H28V60H26zM28,58H30V60H28zM30,58H32V60H30zM36,58H38V60H36zM44,58H46V60H44zM46,58H48V60H46zM56,58H58V60H56zM60,58H62V60H60zM62,58H64V60H62zM8,60H10V62H8zM12,60H14V62H12zM14,60H16V62H14zM16,60H18V62H16zM20,60H22V62H20zM24,60H26V62H24zM26,60H28V62H26zM30,60H32V62H30zM32,60H34V62H32zM36,60H38V62H36zM38,60H40V62H38zM40,60H42V62H40zM48,60H50V62H48zM54,60H56V62H54zM64,60H66V62H64zM8,62H10V64H8zM20,62H22V64H20zM26,62H28V64H26zM28,62H30V64H28zM36,62H38V64H36zM52,62H54V64H52zM56,62H58V64H56zM58,62H60V64H58zM62,62H64V64H62zM8,64H10V66H8zM10,64H12V66H10zM12,64H14V66H12zM14,64H16V66H14zM16,64H18V66H16zM18,64H20V66H18zM20,64H22V66H20zM26,64H28V66H26zM30,64H32V66H30zM32,64H34V66H32zM34,64H36V66H34zM36,64H38V66H36zM42,64H44V66H42zM46,64H48V66H46zM52,64H54V66H52zM54,64H56V66H54zM58,64H60V66H58zM62,64H64V66H62z" id="qr-path" fill="#000000" fill-opacity="1" fill-rule="nonzero" stroke="none" /></svg>